# xmcd CD database file
# Copyright (C) 1993-1997  Ti Kan
#
# Track frame offsets:
#	150
#	19452
#	37552
#	58137
#	70667
#	87092
#	102687
#	127970
#	153530
#	176605
#	193412
#	216302
#	230390
#	249147
#	265047
#
# Disc length: 4305 seconds
#
# Revision: 1
# Processed by: cddbd v1.4b41PL1 Copyright (c) Steve Scherf et al.
# Submitted via: xmcd 2.1 PL2
#
DISCID=cc10cf0f
DTITLE=Christian Dozzler And Blues Wave - Perfect Day
DYEAR=1900
DGENRE=
TTITLE0=I Used To Worry
TTITLE1=I Can't Sleep
TTITLE2=Perfect Day
TTITLE3=Do The Zydeco
TTITLE4=If You Love Me Like You Say
TTITLE5=Rock 'em Dead
TTITLE6=Judgement Day
TTITLE7=Mystery Train
TTITLE8=When You Got A Good Friend
TTITLE9=Purple Turtles
TTITLE10=Wish Me Well
TTITLE11=High Tide
TTITLE12=Fat Belly
TTITLE13=Let's Boogie
TTITLE14=Crying In The Kitchen
EXTD=
EXTT0=
EXTT1=
EXTT2=
EXTT3=
EXTT4=
EXTT5=
EXTT6=
EXTT7=
EXTT8=
EXTT9=
EXTT10=
EXTT11=
EXTT12=
EXTT13=
EXTT14=
PLAYORDER=
